<svg viewBox="0 0 699.047 466.031" id="flag" xmlns="http://www.w3.org/2000/svg" style="height: 466.031px;"><rect width="699.047" height="466.031" x="0" y="0" fill="rgb(198, 12, 48)"></rect><g transform="translate(233.01566666666668,233.0155) rotate(0) scale(0.904915210355987)"><path d="M -5 -150 C -87.842712 -150 -155 -82.842712 -155 0 C -155 82.842712 -87.842712 150 -5 150 C 44.839604 150 88.972932 125.68744 116.25 88.28125 C 94.874916 107.96283 66.346865 120 35 120 C -31.27417 120 -85 66.27417 -85 0 C -85 -66.27417 -31.27417 -120 35 -120 C 66.346865 -120 94.874916 -107.96283 116.25 -88.28125 C 88.972932 -125.68744 44.839604 -150 -5 -150 z" fill="rgb(255, 255, 255)"></path></g><g transform="translate(396.12663333333336,233.0155) rotate(0) scale(0.7281739583333332)"><path d="m 0,-100 24,68 H 96 L 40,12 60,80 0,40 -60,80 -40,12 -96,-32 h 72 z" fill="rgb(255, 255, 255)"></path></g></svg>